<svg xmlns="http://www.w3.org/2000/svg" viewBox="0 0 512 512" width="512" height="512"><path transform="scale(0.046875)" d="m 424 87 c 11 11 19 22 24 33 c 5 11 8 19 8 24 c 0 0 0 9 0 9 c 0 0 -129 129 -129 129 c 0 0 -149 147 -149 147 c 0 0 -122 27 -122 27 c 0 0 26 -123 26 -123 c 0 0 148 -148 148 -148 c 0 0 129 -129 129 -129 c 19 -4 40 6 65 31 m -253 328 c 0 0 12 -13 12 -13 c 0 -15 -9 -31 -26 -48 c -8 -7 -16 -13 -23 -18 c -8 -4 -14 -6 -18 -6 c 0 0 -7 -1 -7 -1 c 0 0 -12 12 -12 12 c 0 0 -9 41 -9 41 c 10 5 17 11 24 17 c 8 9 14 17 18 25 c 0 0 41 -9 41 -9"/></svg>